<svg xmlns="http://www.w3.org/2000/svg" xmlns:osb="http://www.openswatchbook.org/uri/2009/osb" xmlns:svg="http://www.w3.org/2000/svg" id="svg7384" width="16" height="16" version="1.1" viewBox="0 0 16 16"><metadata id="metadata90"/><title id="title9167">Gnome Symbolic Icon Theme</title><defs id="defs7386"><linearGradient id="linearGradient7212" osb:paint="solid"><stop id="stop7214" offset="0" style="stop-color:#000;stop-opacity:1"/></linearGradient></defs><g id="g7628" transform="translate(-781.0002,325)" style="display:inline"><path id="rect991-5" fill="context-fill" fill-opacity="context-fill-opacity" stroke="context-stroke" d="m 788.50203,-323.98114 c -0.55245,0 -0.99805,0.4456 -0.99805,0.99804 v 0.45118 a 5.7338295,5.73383 0 0 0 -1.35547,0.5664 l -0.32227,-0.32226 c -0.39063,-0.39064 -1.01952,-0.39064 -1.41015,0 l -0.70508,0.70508 c -0.39064,0.39062 -0.39064,1.01952 0,1.41015 l 0.32031,0.32031 a 5.7338295,5.73383 0 0 0 -0.56055,1.35743 h -0.45312 c -0.55244,0 -0.99805,0.44365 -0.99805,0.99609 v 0.99805 c 0,0.55244 0.44561,0.99609 0.99805,0.99609 h 0.44922 a 5.7338295,5.73383 0 0 0 0.5664,1.35547 l -0.32226,0.32226 c -0.39064,0.39064 -0.39064,1.01953 0,1.41016 l 0.70508,0.70508 c 0.39063,0.39063 1.01952,0.39063 1.41015,0 l 0.32032,-0.32031 a 5.7338295,5.73383 0 0 0 1.35742,0.56054 v 0.45508 c 0,0.55244 0.4456,0.99609 0.99805,0.9961 h 0.99609 c 0.55244,0 0.99805,-0.44366 0.99805,-0.9961 v -0.45117 a 5.7338295,5.73383 0 0 0 1.35546,-0.56641 l 0.32227,0.32227 c 0.39064,0.39063 1.01952,0.39063 1.41016,0 l 0.70507,-0.70508 c 0.39064,-0.39063 0.39064,-1.01952 0,-1.41016 l -0.32031,-0.32031 a 5.7338295,5.73383 0 0 0 0.56055,-1.35742 h 0.45312 c 0.55245,0 0.99805,-0.44365 0.99805,-0.99609 v -0.99805 c 0,-0.55244 -0.4456,-0.99609 -0.99805,-0.99609 h -0.44922 a 5.7338295,5.73383 0 0 0 -0.5664,-1.35547 l 0.32226,-0.32227 c 0.39064,-0.39063 0.39064,-1.01953 0,-1.41015 l -0.70507,-0.70508 c -0.39064,-0.39064 -1.01952,-0.39064 -1.41016,0 l -0.32031,0.32031 a 5.7338295,5.73383 0 0 0 -1.35742,-0.56055 v -0.45508 c 0,-0.55244 -0.44561,-0.99804 -0.99805,-0.99804 z m 0.51562,3.97656 a 3,3 0 0 1 3,3 3,3 0 0 1 -3,3 3,3 0 0 1 -3,-3 3,3 0 0 1 3,-3 z" style="display:inline;vector-effect:none;stroke:none;stroke-width:.0623242;stroke-linecap:butt;stroke-linejoin:miter;stroke-miterlimit:4;stroke-dasharray:none;stroke-dashoffset:0;stroke-opacity:1;marker:none;marker-start:none;marker-mid:none;marker-end:none;paint-order:normal;enable-background:new"/></g></svg>