<svg xmlns="http://www.w3.org/2000/svg" width="16" height="16" viewBox="0 0 16 16"><g fill="context-fill" fill-opacity="context-fill-opacity" stroke="context-stroke" stroke-opacity="context-stroke-opacity"><path d="m 2 6.007812 c 1.105469 0 2 0.894532 2 2 c 0 1.101563 -0.894531 2 -2 2 s -2 -0.898437 -2 -2 c 0 -1.105468 0.894531 -2 2 -2 z m 0 0"/><path d="m 8 6.007812 c 1.105469 0 2 0.894532 2 2 c 0 1.101563 -0.894531 2 -2 2 s -2 -0.898437 -2 -2 c 0 -1.105468 0.894531 -2 2 -2 z m 0 0"/><path d="m 14 6.007812 c 1.105469 0 2 0.894532 2 2 c 0 1.101563 -0.894531 2 -2 2 s -2 -0.898437 -2 -2 c 0 -1.105468 0.894531 -2 2 -2 z m 0 0"/></g></svg>